{"glyphs":{"0":{"ha":756,"x_min":0,"x_max":0,"o":"m 376 1036 b 69 725 208 1036 69 897 l 69 301 b 376 -6 69 133 208 -6 b 686 301 547 -6 686 133 l 686 725 b 376 1036 686 897 547 1036 z m 376 856 b 453 829 404 856 432 846 l 249 426 l 249 725 b 376 856 249 794 307 856 z m 376 174 b 290 204 344 174 314 185 l 507 632 l 507 301 b 376 174 507 235 447 174 z "},"1":{"ha":756,"x_min":0,"x_max":0,"o":"m 69 0 l 686 0 l 686 181 l 468 181 l 468 1029 l 69 1029 l 69 849 l 288 849 l 288 181 l 69 181 z "},"2":{"ha":760,"x_min":0,"x_max":0,"o":"m 433 399 b 690 725 513 442 690 497 b 381 1036 690 897 551 1036 b 69 725 208 1036 69 897 l 250 725 b 381 854 250 794 311 854 b 510 725 449 854 510 794 b 381 557 510 631 431 581 b 69 143 163 456 69 303 l 69 0 l 690 0 l 690 182 l 267 182 b 433 399 267 292 383 372 z "},"3":{"ha":760,"x_min":0,"x_max":0,"o":"m 311 603 l 311 422 l 389 422 b 510 304 446 422 510 372 b 381 176 510 231 457 176 b 250 304 308 176 250 240 l 69 304 b 381 -6 69 133 208 -6 b 690 304 551 -6 690 133 b 611 511 690 385 661 458 b 690 719 661 567 690 640 b 381 1031 690 892 551 1031 b 69 719 208 1031 69 892 l 264 719 b 381 849 264 783 311 849 b 510 719 456 849 510 794 b 389 603 510 653 447 604 z "},"4":{"ha":804,"x_min":0,"x_max":0,"o":"m 735 308 l 735 476 l 619 476 l 619 1029 l 439 1029 l 69 486 l 69 308 l 439 308 l 439 0 l 619 0 l 619 308 z m 439 476 l 254 476 l 439 756 z "},"5":{"ha":756,"x_min":0,"x_max":0,"o":"m 69 1029 l 69 438 l 378 438 b 507 308 446 438 507 378 b 378 181 507 240 449 181 b 249 308 306 181 249 238 l 69 308 b 378 0 69 138 207 0 b 686 308 549 0 686 138 b 378 618 686 481 549 618 l 249 618 l 249 849 l 647 849 l 647 1029 z "},"6":{"ha":760,"x_min":0,"x_max":0,"o":"m 69 304 b 381 -6 69 133 208 -6 b 690 304 551 -6 690 133 b 381 615 690 476 551 615 b 250 590 331 615 283 600 l 250 719 b 381 849 250 789 311 849 b 510 719 449 849 510 789 l 690 719 b 381 1031 690 892 551 1031 b 69 719 208 1031 69 892 z m 381 435 b 510 304 449 435 510 374 b 381 176 510 236 450 176 b 250 304 307 176 250 233 b 381 435 250 379 314 435 z "},"7":{"ha":744,"x_min":0,"x_max":0,"o":"m 675 1029 l 69 1029 l 69 849 l 468 849 l 69 0 l 276 0 l 675 849 z "},"8":{"ha":760,"x_min":0,"x_max":0,"o":"m 147 511 b 69 304 99 458 69 385 b 381 -6 69 133 208 -6 b 690 304 551 -6 690 133 b 611 511 690 385 661 458 b 690 719 661 567 690 639 b 381 1031 690 890 551 1031 b 69 719 208 1031 69 890 b 147 511 69 639 99 567 z m 381 847 b 510 719 449 847 510 788 b 381 590 510 650 450 590 b 250 719 308 590 250 649 b 381 847 250 789 311 847 z m 381 435 b 510 304 451 435 510 372 b 381 176 510 236 450 176 b 250 304 308 176 250 233 b 381 435 250 376 311 435 z "},"9":{"ha":760,"x_min":0,"x_max":0,"o":"m 690 719 b 379 1031 690 892 551 1031 b 69 719 208 1031 69 892 b 379 408 69 547 208 408 b 510 435 429 408 476 425 l 510 306 b 379 176 510 235 449 176 b 250 306 311 176 250 236 l 69 306 b 379 -6 69 133 208 -6 b 690 306 551 -6 690 133 z m 379 590 b 250 719 311 590 250 650 b 379 849 250 789 310 849 b 510 719 453 849 510 792 b 379 590 510 646 446 590 z "}," ":{"ha":347,"x_min":0,"x_max":0,"o":""},"!":{"ha":425,"x_min":0,"x_max":0,"o":"m 122 1068 l 122 321 l 303 321 l 303 1068 z m 213 257 b 83 115 142 257 83 200 b 213 0 83 58 142 0 b 342 129 283 0 342 58 b 213 257 342 200 283 257 z "},"\"":{"ha":629,"x_min":0,"x_max":0,"o":"m 278 1029 l 85 1029 l 83 671 l 278 671 z m 546 1029 l 353 1029 l 351 671 l 546 671 z "},"#":{"ha":839,"x_min":0,"x_max":0,"o":"m 653 561 l 728 561 l 728 725 l 675 725 l 715 1029 l 535 1029 l 494 725 l 400 725 l 440 1029 l 260 1029 l 219 725 l 111 725 l 111 561 l 197 561 l 186 468 l 111 468 l 111 304 l 164 304 l 124 0 l 304 0 l 344 304 l 439 304 l 399 0 l 579 0 l 619 304 l 728 304 l 728 468 l 642 468 z m 474 561 l 461 468 l 367 468 l 379 561 z "},"&":{"ha":894,"x_min":0,"x_max":0,"o":"m 690 428 l 825 428 l 825 608 l 369 608 b 250 725 313 610 250 658 b 379 854 250 800 304 854 b 496 725 449 854 496 789 l 690 725 b 379 1036 690 897 551 1036 b 69 725 208 1036 69 897 b 149 517 69 646 99 572 b 69 310 99 464 69 390 b 379 0 69 139 208 0 b 600 92 465 0 543 35 b 821 0 656 35 735 0 l 821 182 b 690 311 751 182 690 242 z m 508 428 l 508 310 b 379 182 508 246 451 182 b 250 310 303 182 250 236 b 371 428 250 378 314 428 z "},"'":{"ha":361,"x_min":0,"x_max":0,"o":"m 278 1029 l 85 1029 l 83 671 l 278 671 z "},"(":{"ha":608,"x_min":0,"x_max":0,"o":"m 469 932 l 469 1113 l 408 1113 b 139 843 260 1113 139 992 l 139 206 b 408 -64 139 57 260 -64 l 469 -64 l 469 117 l 408 117 b 318 206 357 117 318 154 l 318 843 b 408 932 318 893 363 932 z "},")":{"ha":608,"x_min":0,"x_max":0,"o":"m 139 117 l 139 -64 l 199 -64 b 469 206 349 -64 469 57 l 469 843 b 199 1113 469 992 349 1113 l 139 1113 l 139 932 l 199 932 b 289 843 246 932 289 893 l 289 206 b 199 117 289 156 250 117 z "},"*":{"ha":654,"x_min":0,"x_max":0,"o":"m 447 790 l 571 849 l 501 971 l 386 892 l 396 1031 l 257 1029 l 267 893 l 153 969 l 83 850 l 208 789 l 83 729 l 154 608 l 267 685 l 257 549 l 397 547 l 386 686 l 501 608 l 571 731 z "},"+":{"ha":886,"x_min":0,"x_max":0,"o":"m 761 326 l 761 506 l 533 506 l 533 733 l 353 733 l 353 506 l 125 506 l 125 326 l 353 326 l 353 97 l 533 97 l 533 326 z "},",":{"ha":389,"x_min":0,"x_max":0,"o":"m 333 257 l 131 257 l 28 -101 l 204 -101 z "},"-":{"ha":636,"x_min":0,"x_max":0,"o":"m 69 501 l 69 322 l 567 322 l 567 501 z "},".":{"ha":369,"x_min":0,"x_max":0,"o":"m 185 257 b 56 129 113 257 56 200 b 185 0 56 58 113 0 b 314 129 256 0 314 58 b 185 257 314 200 256 257 z "},"/":{"ha":674,"x_min":0,"x_max":0,"o":"m 481 1029 l 69 0 l 249 0 l 660 1029 z "},":":{"ha":369,"x_min":0,"x_max":0,"o":"m 185 604 b 56 476 114 604 56 547 b 185 347 56 406 114 347 b 314 476 257 347 314 406 b 185 604 314 547 257 604 z m 185 257 b 56 129 114 257 56 200 b 185 0 56 58 114 0 b 314 129 257 0 314 58 b 185 257 314 200 257 257 z "},";":{"ha":388,"x_min":0,"x_max":0,"o":"m 222 604 b 94 476 151 604 94 547 b 222 347 94 406 151 347 b 351 476 294 347 351 406 b 222 604 351 547 294 604 z m 333 257 l 131 257 l 28 -101 l 204 -101 z "},"<":{"ha":746,"x_min":0,"x_max":0,"o":"m 642 599 l 642 803 l 104 549 l 104 319 l 642 68 l 642 269 l 281 435 z "},"=":{"ha":886,"x_min":0,"x_max":0,"o":"m 125 643 l 125 464 l 761 464 l 761 643 z m 125 361 l 125 181 l 761 181 l 761 361 z "},">":{"ha":746,"x_min":0,"x_max":0,"o":"m 642 549 l 104 803 l 104 599 l 465 435 l 104 269 l 104 68 l 642 319 z "},"?":{"ha":825,"x_min":0,"x_max":0,"o":"m 413 842 b 547 707 483 842 547 781 b 413 571 547 633 485 571 l 250 571 l 250 296 l 413 296 l 413 378 b 742 707 593 378 742 525 b 413 1036 742 888 593 1036 b 83 707 231 1036 83 888 l 278 707 b 413 842 278 781 340 842 z m 333 257 b 206 129 264 257 206 200 b 333 0 206 58 264 0 b 463 129 404 0 463 58 b 333 257 463 200 404 257 z "},"@":{"ha":885,"x_min":0,"x_max":0,"o":"m 815 619 b 443 933 811 797 658 933 b 69 619 246 933 74 797 l 69 188 b 443 -172 69 -15 206 -172 b 792 26 608 -172 750 -71 l 636 99 b 443 8 603 40 525 8 b 250 188 342 8 250 83 l 249 188 l 249 613 l 250 613 b 443 754 250 693 342 754 b 636 613 551 754 636 693 l 636 604 l 578 604 b 289 365 396 604 289 522 b 507 143 289 225 381 143 b 636 200 553 143 599 163 l 636 150 l 815 150 z m 546 308 b 472 378 501 308 472 333 b 628 453 472 454 574 453 l 636 453 l 636 413 b 546 308 636 338 590 308 z "},"A":{"ha":775,"x_min":0,"x_max":0,"o":"m 518 257 l 581 0 l 761 0 l 510 1029 l 265 1029 l 14 0 l 194 0 l 257 257 z m 478 424 l 299 424 l 388 790 z "},"B":{"ha":756,"x_min":0,"x_max":0,"o":"m 615 515 b 707 719 672 564 707 635 b 397 1029 707 890 568 1029 l 90 1029 l 90 0 l 397 0 b 707 308 568 0 707 139 b 615 515 707 394 672 465 z m 269 849 l 397 849 b 526 719 468 849 526 790 b 397 592 526 650 467 592 l 269 592 z m 269 181 l 269 438 l 397 438 b 526 308 468 438 526 378 b 397 181 526 239 467 181 z "},"C":{"ha":742,"x_min":0,"x_max":0,"o":"m 499 624 l 679 624 l 679 725 b 369 1036 679 897 540 1036 b 63 725 201 1036 63 897 l 63 301 b 369 -6 63 133 201 -6 b 679 301 540 -6 679 133 l 679 406 l 499 406 l 499 301 b 369 174 499 233 440 175 b 242 301 301 174 243 219 l 242 725 b 369 856 242 794 300 854 b 499 725 439 856 497 796 z "},"D":{"ha":769,"x_min":0,"x_max":0,"o":"m 90 1029 l 90 0 l 397 0 b 707 308 568 0 707 139 l 707 719 b 397 1029 707 890 568 1029 z m 271 181 l 271 849 l 397 849 b 528 719 468 849 526 792 l 528 308 b 397 181 528 239 468 182 z "},"E":{"ha":686,"x_min":0,"x_max":0,"o":"m 269 849 l 617 849 l 617 1029 l 90 1029 l 90 0 l 617 0 l 617 181 l 269 181 l 269 425 l 617 425 l 617 604 l 269 604 z "},"F":{"ha":686,"x_min":0,"x_max":0,"o":"m 269 849 l 617 849 l 617 1029 l 90 1029 l 90 0 l 269 0 l 269 425 l 617 425 l 617 604 l 269 604 z "},"G":{"ha":743,"x_min":0,"x_max":0,"o":"m 681 593 l 371 593 l 371 413 l 501 413 l 501 308 b 371 181 501 239 443 182 b 242 308 303 181 243 239 l 242 719 b 371 847 242 786 300 847 b 501 719 440 847 500 790 l 681 719 b 371 1029 681 890 542 1029 b 63 719 201 1029 63 890 l 63 308 b 371 0 63 139 201 0 b 681 308 542 0 681 139 z "},"H":{"ha":797,"x_min":0,"x_max":0,"o":"m 707 1029 l 528 1029 l 528 604 l 269 604 l 269 1029 l 90 1029 l 90 0 l 269 0 l 269 425 l 528 425 l 528 0 l 707 0 z "},"I":{"ha":372,"x_min":0,"x_max":0,"o":"m 96 1029 l 276 1029 l 276 0 l 96 0 z "},"J":{"ha":732,"x_min":0,"x_max":0,"o":"m 664 1029 l 483 1029 l 483 301 b 357 174 482 219 425 174 b 226 301 286 175 226 233 l 226 406 l 46 406 l 46 301 b 357 -6 46 133 185 -6 b 664 301 525 -6 664 133 z "},"K":{"ha":772,"x_min":0,"x_max":0,"o":"m 450 586 l 744 1029 l 539 1029 l 271 622 l 271 1029 l 90 1029 l 90 0 l 271 0 l 271 347 l 322 431 l 539 0 l 744 0 z "},"L":{"ha":664,"x_min":0,"x_max":0,"o":"m 618 181 l 271 181 l 271 1029 l 90 1029 l 90 0 l 618 0 z "},"M":{"ha":928,"x_min":0,"x_max":0,"o":"m 838 1029 l 619 1029 l 467 539 l 324 1029 l 90 1029 l 90 0 l 271 0 l 271 683 l 363 328 l 568 328 l 657 674 l 657 0 l 838 0 z "},"N":{"ha":797,"x_min":0,"x_max":0,"o":"m 707 1029 l 528 1029 l 528 421 l 271 1029 l 90 1029 l 90 0 l 269 0 l 269 608 l 526 0 l 707 0 z "},"O":{"ha":742,"x_min":0,"x_max":0,"o":"m 369 1036 b 63 725 201 1036 63 897 l 63 301 b 369 -6 63 133 201 -6 b 679 301 540 -6 679 133 l 679 725 b 369 1036 679 897 540 1036 z m 369 174 b 242 301 301 174 243 219 l 242 725 b 369 856 242 794 300 854 b 500 725 439 856 499 796 l 500 301 b 369 174 500 233 440 175 z "},"P":{"ha":750,"x_min":0,"x_max":0,"o":"m 90 1029 l 90 0 l 271 0 l 271 374 l 399 374 b 708 681 569 374 708 513 l 708 719 b 399 1029 708 890 569 1029 z m 271 553 l 271 849 l 399 849 b 528 719 469 849 526 792 l 528 681 b 399 553 528 613 469 554 z "},"Q":{"ha":742,"x_min":0,"x_max":0,"o":"m 679 725 b 369 1036 679 897 540 1036 b 63 725 201 1036 63 897 l 63 301 b 369 -6 63 133 201 -6 l 393 -4 b 478 -110 443 -14 476 -51 l 654 -110 b 582 79 654 -37 626 29 b 679 301 642 135 679 214 z m 242 725 b 369 856 242 794 300 854 b 500 725 439 856 499 796 l 500 301 b 369 174 500 233 440 175 b 242 301 301 174 243 219 z "},"R":{"ha":771,"x_min":0,"x_max":0,"o":"m 344 374 l 508 0 l 715 0 l 538 407 b 708 681 639 457 708 561 l 708 719 b 397 1029 708 890 569 1029 l 90 1029 l 90 0 l 271 0 l 271 374 z m 271 849 l 397 849 b 528 719 468 849 526 792 l 528 681 b 397 553 528 613 468 554 l 271 553 z "},"S":{"ha":728,"x_min":0,"x_max":0,"o":"m 363 181 b 482 282 432 181 482 222 b 215 472 482 372 331 406 b 56 732 133 518 56 607 b 363 1029 56 903 194 1029 b 672 719 533 1029 672 890 l 493 719 b 363 849 489 790 433 849 b 244 744 292 849 244 814 b 481 569 244 667 374 626 b 672 294 574 518 672 435 b 363 0 672 126 533 0 b 56 308 194 0 56 139 l 235 308 b 363 181 238 239 293 181 z "},"T":{"ha":672,"x_min":0,"x_max":0,"o":"m 644 849 l 644 1029 l 28 1029 l 28 849 l 246 849 l 246 0 l 426 0 l 426 849 z "},"U":{"ha":783,"x_min":0,"x_max":0,"o":"m 700 1029 l 521 1029 l 521 301 b 390 174 521 233 461 175 b 263 301 322 174 264 219 l 263 1029 l 83 1029 l 83 301 b 390 -6 83 133 222 -6 b 700 301 561 -6 700 133 z "},"V":{"ha":686,"x_min":0,"x_max":0,"o":"m 658 1029 l 478 1029 l 343 311 l 208 1029 l 28 1029 l 221 0 l 465 0 z "},"W":{"ha":1028,"x_min":0,"x_max":0,"o":"m 1003 1029 l 822 1029 l 710 381 l 604 1029 l 424 1029 l 318 381 l 206 1029 l 25 1029 l 218 0 l 411 0 l 514 586 l 617 0 l 810 0 z "},"X":{"ha":722,"x_min":0,"x_max":0,"o":"m 457 528 l 697 1029 l 504 1029 l 361 714 l 218 1029 l 25 1029 l 265 528 l 25 0 l 218 0 l 361 331 l 504 0 l 697 0 z "},"Y":{"ha":697,"x_min":0,"x_max":0,"o":"m 683 1029 l 490 1029 l 347 653 l 207 1029 l 14 1029 l 257 413 l 257 0 l 438 0 l 438 413 z "},"Z":{"ha":664,"x_min":0,"x_max":0,"o":"m 608 849 l 608 1029 l 56 1029 l 56 849 l 415 849 l 56 181 l 56 0 l 608 0 l 608 181 l 249 181 z "},"\\":{"ha":833,"x_min":0,"x_max":0,"o":"m 585 0 l 764 0 l 353 1029 l 174 1029 z "},"^":{"ha":901,"x_min":0,"x_max":0,"o":"m 614 492 l 818 492 l 564 1029 l 335 1029 l 83 492 l 285 492 l 450 853 z "},"_":{"ha":764,"x_min":0,"x_max":0,"o":"m 0 -85 l 0 -222 l 764 -222 l 764 -85 z "},"`":{"ha":700,"x_min":0,"x_max":0,"o":"m 204 1056 l 397 1056 l 482 843 l 315 843 z "},"a":{"ha":664,"x_min":0,"x_max":0,"o":"m 594 521 b 324 785 592 679 485 785 b 54 515 163 785 54 676 l 235 515 b 324 604 235 568 271 604 b 414 515 378 604 414 568 l 414 454 l 331 454 b 42 217 149 454 42 374 b 260 -6 42 76 132 -6 b 414 58 314 -6 371 17 l 414 0 l 594 0 z m 299 158 b 225 229 254 158 225 185 b 381 304 225 306 326 304 l 414 304 l 414 264 b 299 158 414 201 357 158 z "},"b":{"ha":693,"x_min":0,"x_max":0,"o":"m 624 515 b 392 785 628 681 519 785 b 264 733 343 785 299 767 l 264 1068 l 83 1068 l 83 0 l 264 0 l 264 46 b 392 -6 299 13 343 -6 b 624 264 519 -6 628 99 z m 354 174 b 264 264 304 174 264 214 l 264 515 b 354 604 264 565 304 604 b 443 515 401 604 443 565 l 443 264 b 354 174 443 214 401 174 z "},"c":{"ha":665,"x_min":0,"x_max":0,"o":"m 429 488 l 610 488 l 610 515 b 340 785 610 664 489 785 b 69 521 192 785 72 667 l 69 257 b 340 -6 74 111 193 -6 b 610 264 489 -6 610 115 l 610 292 l 429 292 l 429 264 b 340 174 429 214 392 174 b 250 264 290 174 250 214 l 250 515 b 340 604 250 565 292 604 b 429 515 390 604 429 565 z "},"d":{"ha":706,"x_min":0,"x_max":0,"o":"m 622 1068 l 443 1068 l 443 750 b 333 785 410 772 372 785 b 69 515 188 785 65 681 l 69 264 b 308 -6 65 99 181 -6 b 443 50 358 -6 406 14 l 443 0 l 622 0 z m 346 174 b 250 264 296 174 250 214 l 250 515 b 346 604 250 565 296 604 b 443 515 397 604 443 565 l 443 264 b 346 174 443 214 397 174 z "},"e":{"ha":679,"x_min":0,"x_max":0,"o":"m 340 785 b 69 515 190 785 69 664 l 69 264 b 332 -6 69 115 168 -6 b 610 264 481 -6 610 115 l 436 264 b 340 168 436 201 392 168 b 250 264 290 168 250 201 l 250 336 l 610 336 l 610 515 b 340 785 610 664 489 785 z m 436 486 l 250 486 l 250 515 b 340 614 250 578 292 614 b 436 515 390 614 436 578 z "},"f":{"ha":465,"x_min":0,"x_max":0,"o":"m 472 888 l 472 1068 l 382 1068 b 113 797 233 1068 113 947 l 113 779 l 35 779 l 35 617 l 113 617 l 113 0 l 293 0 l 293 617 l 447 617 l 447 779 l 293 779 l 293 797 b 382 888 293 847 335 888 z "},"g":{"ha":693,"x_min":0,"x_max":0,"o":"m 610 778 l 429 778 l 429 733 b 301 785 394 767 350 785 b 69 515 174 785 65 681 l 69 271 b 288 0 65 104 147 0 b 429 58 339 0 390 21 l 429 -51 b 339 -142 429 -103 389 -142 b 250 -51 289 -142 250 -101 l 69 -51 b 339 -321 69 -200 190 -321 b 610 -51 489 -321 610 -200 z m 339 181 b 250 271 292 181 250 221 l 250 515 b 339 604 250 565 292 604 b 429 515 389 604 429 565 l 429 271 b 339 181 429 221 389 181 z "},"h":{"ha":706,"x_min":0,"x_max":0,"o":"m 399 785 b 263 729 349 785 300 765 l 263 1068 l 83 1068 l 83 0 l 263 0 l 263 515 b 360 604 263 565 311 604 b 456 515 414 604 456 565 l 456 0 l 636 0 l 636 515 b 399 785 640 681 525 785 z "},"i":{"ha":346,"x_min":0,"x_max":0,"o":"m 172 1068 b 63 957 111 1068 63 1018 b 172 849 63 897 111 849 b 283 957 233 849 283 897 b 172 1068 283 1018 233 1068 z m 263 0 l 263 778 l 82 778 l 82 0 z "},"j":{"ha":350,"x_min":0,"x_max":0,"o":"m 176 849 b 288 957 236 849 288 897 b 176 1068 288 1018 236 1068 b 67 957 115 1068 67 1018 b 176 849 67 897 115 849 z m 90 778 l 90 -51 b 0 -142 90 -103 50 -142 l 0 -321 b 271 -51 150 -321 271 -200 l 271 778 z "},"k":{"ha":640,"x_min":0,"x_max":0,"o":"m 428 418 l 626 778 l 425 778 l 263 471 l 263 1068 l 83 1068 l 83 0 l 263 0 l 263 354 l 421 0 l 624 0 z "},"l":{"ha":347,"x_min":0,"x_max":0,"o":"m 264 0 l 264 1068 l 83 1068 l 83 0 z "},"m":{"ha":1079,"x_min":0,"x_max":0,"o":"m 760 785 b 576 701 697 785 626 756 b 399 785 532 754 467 785 b 264 729 349 785 301 765 l 264 779 l 83 779 l 83 0 l 264 0 l 264 515 b 360 604 264 565 311 604 b 457 515 414 604 457 565 l 457 0 l 638 0 l 638 515 l 638 518 b 733 604 639 567 685 604 b 829 515 788 604 829 565 l 829 0 l 1010 0 l 1010 515 b 760 785 1014 681 899 785 z "},"n":{"ha":706,"x_min":0,"x_max":0,"o":"m 399 785 b 263 729 349 785 300 765 l 263 778 l 82 778 l 82 0 l 263 0 l 263 515 b 360 604 263 565 311 604 b 456 515 414 604 456 565 l 456 0 l 636 0 l 636 515 b 399 785 636 681 525 785 z "},"o":{"ha":679,"x_min":0,"x_max":0,"o":"m 610 514 l 608 514 b 339 783 608 663 488 783 b 69 514 190 783 69 663 l 69 269 b 339 -1 69 119 190 -1 b 608 269 488 -1 608 119 l 610 269 z m 431 269 l 429 269 b 339 179 429 219 390 179 b 249 269 289 179 249 219 l 249 514 b 339 603 249 564 292 603 b 429 514 389 603 429 564 l 431 514 z "},"p":{"ha":693,"x_min":0,"x_max":0,"o":"m 624 515 b 392 785 628 681 519 785 b 264 733 343 785 299 767 l 264 779 l 83 779 l 83 -321 l 264 -321 l 264 46 b 392 -6 299 13 343 -6 b 624 265 519 -6 628 99 z m 354 175 b 264 265 304 175 264 215 l 264 515 b 354 604 264 565 304 604 b 443 515 401 604 443 565 l 443 265 b 354 175 443 215 401 175 z "},"q":{"ha":693,"x_min":0,"x_max":0,"o":"m 610 778 l 429 778 l 429 733 b 301 785 394 767 350 785 b 69 515 174 785 65 681 l 69 264 b 301 -6 65 99 174 -6 b 429 46 350 -6 394 13 l 429 -321 l 610 -321 z m 339 174 b 250 264 292 174 250 214 l 250 515 b 339 604 250 565 292 604 b 429 515 389 604 429 565 l 429 264 b 339 174 429 214 389 174 z "},"r":{"ha":475,"x_min":0,"x_max":0,"o":"m 475 778 l 399 778 b 264 724 349 778 301 758 l 264 778 l 83 778 l 83 0 l 264 0 l 264 469 b 399 599 264 558 350 599 l 475 599 z "},"s":{"ha":594,"x_min":0,"x_max":0,"o":"m 365 528 l 546 528 l 546 547 b 297 785 546 678 433 785 b 49 544 161 785 49 676 b 178 351 49 440 111 381 b 360 221 297 297 360 267 b 299 168 360 189 332 168 b 229 239 253 168 229 200 l 229 257 l 49 257 l 49 239 b 299 0 49 96 149 0 b 546 240 447 0 546 96 b 394 454 546 372 450 426 b 236 564 304 500 236 522 b 297 618 236 596 268 618 b 365 547 342 618 365 586 z "},"t":{"ha":472,"x_min":0,"x_max":0,"o":"m 451 181 l 361 181 b 271 271 314 181 271 221 l 271 617 l 425 617 l 425 779 l 271 779 l 271 979 l 90 979 l 90 779 l 14 779 l 14 617 l 90 617 l 90 232 b 335 0 90 83 186 0 l 451 0 z "},"u":{"ha":706,"x_min":0,"x_max":0,"o":"m 622 778 l 443 778 l 443 264 b 346 174 443 214 396 174 b 250 264 293 174 250 214 l 250 778 l 69 778 l 69 264 b 308 -6 67 99 181 -6 b 443 50 358 -6 406 14 l 443 0 l 622 0 z "},"v":{"ha":581,"x_min":0,"x_max":0,"o":"m 574 778 l 406 778 l 293 288 l 188 778 l 7 778 l 188 0 l 393 0 z "},"w":{"ha":1017,"x_min":0,"x_max":0,"o":"m 1010 778 l 829 778 l 721 307 l 611 778 l 406 778 l 296 307 l 188 778 l 7 778 l 188 0 l 393 0 l 508 500 l 624 0 l 829 0 z "},"x":{"ha":607,"x_min":0,"x_max":0,"o":"m 408 406 l 607 778 l 404 778 l 304 567 l 203 778 l 0 778 l 199 406 l 0 0 l 203 0 l 304 233 l 404 0 l 607 0 z "},"y":{"ha":607,"x_min":0,"x_max":0,"o":"m 593 778 l 417 778 l 301 318 l 181 778 l 0 778 l 219 0 l 222 0 l 143 -319 l 311 -319 z "},"z":{"ha":596,"x_min":0,"x_max":0,"o":"m 554 618 l 554 778 l 42 778 l 42 604 l 329 604 l 42 161 l 42 0 l 554 0 l 554 174 l 264 174 z "},"¡":{"ha":425,"x_min":0,"x_max":0,"o":"m 83 669 b 213 528 83 585 142 528 b 342 656 283 528 342 585 b 213 785 342 726 283 785 b 83 669 142 785 83 726 z m 303 464 l 122 464 l 122 -283 l 303 -283 z "},"¨":{"ha":690,"x_min":0,"x_max":0,"o":"m 242 1031 b 153 953 192 1031 153 994 b 242 874 153 910 192 874 b 332 953 292 874 332 910 b 242 1031 332 994 292 1031 z m 472 1031 b 383 953 422 1031 383 994 b 472 874 383 910 422 874 b 563 953 522 874 563 910 b 472 1031 563 994 522 1031 z "},"´":{"ha":700,"x_min":0,"x_max":0,"o":"m 218 843 l 303 1056 l 496 1056 l 385 843 z "},"·":{"ha":451,"x_min":0,"x_max":0,"o":"m 225 604 b 97 476 154 604 97 547 b 225 347 97 406 154 347 b 354 476 297 347 354 406 b 225 604 354 547 297 604 z "},"¿":{"ha":833,"x_min":0,"x_max":0,"o":"m 206 656 b 333 528 206 585 264 528 b 463 656 404 528 463 585 b 333 785 463 726 404 785 b 206 656 264 785 206 726 z m 547 78 b 413 -57 547 4 483 -57 b 278 78 340 -57 278 4 l 83 78 b 413 -251 83 -103 231 -251 b 742 78 593 -251 742 -103 b 413 407 742 260 593 407 l 413 489 l 250 489 l 250 214 l 413 214 b 547 78 485 214 547 151 z "},"À":{"ha":775,"x_min":0,"x_max":0,"o":"m 308 1107 l 475 1107 l 390 1319 l 197 1319 z m 518 257 l 581 0 l 761 0 l 510 1029 l 265 1029 l 14 0 l 194 0 l 257 257 z m 478 424 l 299 424 l 388 790 z "},"Â":{"ha":775,"x_min":0,"x_max":0,"o":"m 339 1107 l 375 1268 l 410 1107 l 578 1107 l 492 1319 l 257 1319 l 172 1107 z m 518 257 l 581 0 l 761 0 l 510 1029 l 265 1029 l 14 0 l 194 0 l 257 257 z m 478 424 l 299 424 l 388 790 z "},"È":{"ha":686,"x_min":0,"x_max":0,"o":"m 263 1107 l 429 1107 l 344 1319 l 151 1319 z m 269 849 l 617 849 l 617 1029 l 90 1029 l 90 0 l 617 0 l 617 181 l 269 181 l 269 425 l 617 425 l 617 604 l 269 604 z "},"É":{"ha":686,"x_min":0,"x_max":0,"o":"m 388 1107 l 499 1319 l 306 1319 l 221 1107 z m 269 849 l 617 849 l 617 1029 l 90 1029 l 90 0 l 617 0 l 617 181 l 269 181 l 269 425 l 617 425 l 617 604 l 269 604 z "},"Ê":{"ha":686,"x_min":0,"x_max":0,"o":"m 326 1107 l 363 1268 l 397 1107 l 565 1107 l 479 1319 l 244 1319 l 160 1107 z m 269 849 l 617 849 l 617 1029 l 90 1029 l 90 0 l 617 0 l 617 181 l 269 181 l 269 425 l 617 425 l 617 604 l 269 604 z "},"Ë":{"ha":686,"x_min":0,"x_max":0,"o":"m 246 1138 b 336 1217 296 1138 336 1174 b 246 1294 336 1258 296 1294 b 157 1217 196 1294 157 1258 b 246 1138 157 1174 196 1138 z m 476 1138 b 567 1217 526 1138 567 1174 b 476 1294 567 1258 526 1294 b 388 1217 426 1294 388 1258 b 476 1138 388 1174 426 1138 z m 269 849 l 617 849 l 617 1029 l 90 1029 l 90 0 l 617 0 l 617 181 l 269 181 l 269 425 l 617 425 l 617 604 l 269 604 z "},"Ï":{"ha":372,"x_min":0,"x_max":0,"o":"m 61 1294 b -28 1217 11 1294 -28 1258 b 61 1138 -28 1174 11 1138 b 151 1217 111 1138 151 1174 b 61 1294 151 1258 111 1294 z m 292 1294 b 203 1217 242 1294 203 1258 b 292 1138 203 1174 242 1138 b 382 1217 342 1138 382 1174 b 292 1294 382 1258 342 1294 z m 96 1029 l 276 1029 l 276 0 l 96 0 z "},"à":{"ha":664,"x_min":0,"x_max":0,"o":"m 283 843 l 450 843 l 365 1056 l 172 1056 z m 594 521 b 324 785 592 679 485 785 b 54 515 163 785 54 676 l 235 515 b 324 604 235 568 271 604 b 414 515 378 604 414 568 l 414 454 l 331 454 b 42 217 149 454 42 374 b 260 -6 42 76 132 -6 b 414 58 314 -6 371 17 l 414 0 l 594 0 z m 299 158 b 225 229 254 158 225 185 b 381 304 225 306 326 304 l 414 304 l 414 264 b 299 158 414 201 357 158 z "},"á":{"ha":664,"x_min":0,"x_max":0,"o":"m 410 843 l 521 1056 l 328 1056 l 243 843 z m 594 521 b 324 785 592 679 485 785 b 54 515 163 785 54 676 l 235 515 b 324 604 235 568 271 604 b 414 515 378 604 414 568 l 414 454 l 331 454 b 42 217 149 454 42 374 b 260 -6 42 76 132 -6 b 414 58 314 -6 371 17 l 414 0 l 594 0 z m 299 158 b 225 229 254 158 225 185 b 381 304 225 306 326 304 l 414 304 l 414 264 b 299 158 414 201 357 158 z "},"â":{"ha":664,"x_min":0,"x_max":0,"o":"m 288 843 l 324 1004 l 358 843 l 526 843 l 440 1056 l 206 1056 l 121 843 z m 594 521 b 324 785 592 679 485 785 b 54 515 163 785 54 676 l 235 515 b 324 604 235 568 271 604 b 414 515 378 604 414 568 l 414 454 l 331 454 b 42 217 149 454 42 374 b 260 -6 42 76 132 -6 b 414 58 314 -6 371 17 l 414 0 l 594 0 z m 299 158 b 225 229 254 158 225 185 b 381 304 225 306 326 304 l 414 304 l 414 264 b 299 158 414 201 357 158 z "},"è":{"ha":679,"x_min":0,"x_max":0,"o":"m 300 843 l 467 843 l 382 1056 l 189 1056 z m 340 785 b 69 515 190 785 69 664 l 69 264 b 332 -6 69 115 168 -6 b 610 264 481 -6 610 115 l 436 264 b 340 168 436 201 392 168 b 250 264 290 168 250 201 l 250 336 l 610 336 l 610 515 b 340 785 610 664 489 785 z m 436 486 l 250 486 l 250 515 b 340 614 250 578 292 614 b 436 515 390 614 436 578 z "},"é":{"ha":679,"x_min":0,"x_max":0,"o":"m 426 843 l 538 1056 l 344 1056 l 260 843 z m 340 785 b 69 515 190 785 69 664 l 69 264 b 332 -6 69 115 168 -6 b 610 264 481 -6 610 115 l 436 264 b 340 168 436 201 392 168 b 250 264 290 168 250 201 l 250 336 l 610 336 l 610 515 b 340 785 610 664 489 785 z m 436 486 l 250 486 l 250 515 b 340 614 250 578 292 614 b 436 515 390 614 436 578 z "},"ê":{"ha":679,"x_min":0,"x_max":0,"o":"m 304 843 l 340 1004 l 375 843 l 543 843 l 457 1056 l 222 1056 l 138 843 z m 340 785 b 69 515 190 785 69 664 l 69 264 b 332 -6 69 115 168 -6 b 610 264 481 -6 610 115 l 436 264 b 340 168 436 201 392 168 b 250 264 290 168 250 201 l 250 336 l 610 336 l 610 515 b 340 785 610 664 489 785 z m 436 486 l 250 486 l 250 515 b 340 614 250 578 292 614 b 436 515 390 614 436 578 z "},"ë":{"ha":679,"x_min":0,"x_max":0,"o":"m 224 874 b 314 953 274 874 314 910 b 224 1031 314 994 274 1031 b 135 953 174 1031 135 994 b 224 874 135 910 174 874 z m 454 874 b 544 953 504 874 544 910 b 454 1031 544 994 504 1031 b 365 953 404 1031 365 994 b 454 874 365 910 404 874 z m 340 785 b 69 515 190 785 69 664 l 69 264 b 332 -6 69 115 168 -6 b 610 264 481 -6 610 115 l 436 264 b 340 168 436 201 392 168 b 250 264 290 168 250 201 l 250 336 l 610 336 l 610 515 b 340 785 610 664 489 785 z m 436 486 l 250 486 l 250 515 b 340 614 250 578 292 614 b 436 515 390 614 436 578 z "},"ˆ":{"ha":690,"x_min":0,"x_max":0,"o":"m 394 843 l 563 843 l 476 1056 l 242 1056 l 157 843 l 324 843 l 360 1004 z "},"–":{"ha":833,"x_min":0,"x_max":0,"o":"m 69 501 l 69 322 l 764 322 l 764 501 z "},"—":{"ha":1217,"x_min":0,"x_max":0,"o":"m 69 501 l 69 322 l 1147 322 l 1147 501 z "},"‘":{"ha":404,"x_min":0,"x_max":0,"o":"m 56 671 l 260 671 l 363 1029 l 185 1029 z "},"’":{"ha":404,"x_min":0,"x_max":0,"o":"m 349 1029 l 144 1029 l 42 671 l 219 671 z "},"“":{"ha":632,"x_min":0,"x_max":0,"o":"m 56 671 l 258 671 l 361 1029 l 210 1029 z m 310 671 l 514 671 l 590 1029 l 439 1029 z "},"”":{"ha":632,"x_min":0,"x_max":0,"o":"m 322 1029 l 118 1029 l 42 671 l 193 671 z m 576 1029 l 374 1029 l 271 671 l 422 671 z "},"•":{"ha":664,"x_min":0,"x_max":0,"o":"m 332 617 b 125 414 217 617 125 526 b 332 207 125 300 217 207 b 539 414 444 207 539 300 b 332 617 539 526 444 617 z "},"…":{"ha":1042,"x_min":0,"x_max":0,"o":"m 185 257 b 56 129 113 257 56 200 b 185 0 56 58 113 0 b 314 129 256 0 314 58 b 185 257 314 200 256 257 z m 521 257 b 392 129 449 257 392 200 b 521 0 392 58 449 0 b 650 129 592 0 650 58 b 521 257 650 200 592 257 z m 857 257 b 728 129 785 257 728 200 b 857 0 728 58 785 0 b 986 129 928 0 986 58 b 857 257 986 200 928 257 z "}}}
